<?xml version="1.0" encoding="utf-8"?>
<svg version="1.1" id="Layer_1" x="0px" y="0px" width="100%" viewBox="0 0 512 512" enable-background="new 0 0 512 512" xmlns="http://www.w3.org/2000/svg">
  <path fill="#D58B6D" opacity="1.000000" stroke="none" d=" M225.000000,1.000001 C246.020889,1.000000 267.041779,1.000000 288.290894,1.386334 C289.530029,2.180761 290.507660,2.791070 291.557373,2.964288 C298.618896,4.129545 305.810059,4.725817 312.747131,6.390314 C337.449921,12.317567 361.157013,20.831486 383.295441,33.596638 C399.467804,42.921719 414.924164,53.290394 428.342804,66.159935 C440.103546,77.439392 451.260742,89.515831 461.445007,102.232872 C477.595215,122.399574 489.548767,145.105515 498.200043,169.503799 C504.407074,187.008835 509.366791,204.797989 511.099335,223.376465 C511.154846,223.971558 512.340942,224.461197 513.000000,225.000000 C513.000000,246.020889 513.000000,267.041779 512.613892,288.291504 C511.828217,289.198608 511.217529,289.831451 511.060486,290.561798 C508.028198,304.665314 505.628418,318.934784 501.916382,332.854858 C496.960846,351.437988 489.463593,369.190491 479.030334,385.349335 C469.695160,399.807526 459.718689,413.959930 448.830933,427.270386 C441.222351,436.572021 431.789185,444.434448 422.834778,452.569641 C409.040405,465.101959 393.513245,475.299652 377.055298,483.891571 C349.913940,498.060822 321.294891,507.868225 290.647125,511.097260 C290.038025,511.161438 289.546417,512.340881 289.000000,513.000000 C267.979095,513.000000 246.958206,513.000000 225.711517,512.615417 C224.641785,511.823486 223.838211,511.228149 222.947861,511.037048 C209.162979,508.078217 195.203033,505.778137 181.613129,502.106049 C162.904755,497.050842 145.332703,488.997406 128.589752,479.199493 C112.611450,469.849091 97.503067,459.263763 84.099564,446.474304 C76.195732,438.932526 68.714996,430.918915 61.390640,422.804596 C48.897617,408.964203 38.686237,393.448456 30.084202,376.980011 C15.918350,349.859772 6.136635,321.266693 2.902785,290.648376 C2.838397,290.038727 1.659127,289.546844 0.999999,289.000000 C1.000000,267.645782 1.000000,246.291550 1.378927,224.719360 C2.832518,219.484543 4.035033,214.491119 4.960571,209.446884 C9.991001,182.030548 19.347952,156.224701 32.968254,131.878052 C47.975014,105.053085 67.311478,81.909172 90.558350,61.881638 C109.606750,45.471138 130.568420,32.141651 153.591644,22.106279 C175.753891,12.446188 198.714874,5.556037 222.848267,2.918923 C223.626114,2.833925 224.285431,1.664111 225.000000,1.000001 M158.366806,383.168945 C145.655670,396.977631 132.944534,410.786285 120.231606,424.596924 C194.352386,489.268036 334.435394,500.056427 422.337891,393.833496 C495.653442,305.237640 482.775024,178.339767 411.798370,107.884178 C410.861572,108.758446 409.850861,109.583260 408.977875,110.534439 C398.165558,122.314964 387.426880,134.163513 376.560394,145.893723 C366.332031,156.935074 355.954498,167.838181 345.702911,178.858261 C344.626495,180.015366 343.957733,181.551666 342.410828,183.053879 C340.869141,184.283386 339.147491,185.344711 337.815216,186.769974 C329.746643,195.401520 321.766510,204.115738 313.757721,212.803177 C301.575500,226.017746 289.356140,239.198334 277.220276,252.455322 C253.289246,278.597107 229.439453,304.813324 205.487213,330.935669 C192.214752,345.410645 178.760544,359.718964 165.492844,374.198273 C163.062622,376.850403 161.135757,379.963776 158.366806,383.168945 M290.200684,182.299423 C296.853027,174.982315 303.487000,167.648407 310.161896,160.351929 C321.078979,148.418152 331.989044,136.477692 342.965424,124.598564 C352.389648,114.399254 361.935364,104.312172 371.360138,94.113373 C375.229248,89.926491 378.922150,85.576759 382.912811,81.054451 C336.913605,47.276073 285.490204,32.998241 229.237900,40.290066 C165.437103,48.560390 114.835022,80.347878 78.401985,133.335953 C45.808884,180.739258 34.741196,233.764587 43.245911,290.352722 C49.281235,330.510162 66.142204,366.249268 92.881989,397.742828 C100.381248,389.842682 107.385979,382.581451 114.250092,375.189636 C118.583122,370.523468 122.706116,365.662262 127.548523,360.675323 C138.026947,349.323975 148.534851,337.999664 158.977219,326.615234 C176.954803,307.015778 194.861130,287.350922 212.853683,267.765228 C233.097870,245.728531 253.445892,223.787079 273.656860,201.720047 C279.256165,195.606567 284.528870,189.193970 290.200684,182.299423 z"/>
  <path fill="#ECC97E" opacity="1.000000" stroke="none" d=" M342.755310,182.982971 C357.238800,182.912048 371.377777,182.912048 386.264954,182.912048 C386.264954,249.972000 386.264954,316.620697 386.264954,382.983002 C311.214203,382.983002 235.564926,382.983002 159.446106,382.923615 C161.135757,379.963776 163.062622,376.850403 165.492844,374.198273 C178.760544,359.718964 192.214752,345.410645 205.487213,330.935669 C229.439453,304.813324 253.289246,278.597107 277.220276,252.455322 C289.356140,239.198334 301.575500,226.017746 313.757721,212.803177 C321.766510,204.115738 329.746643,195.401520 337.815216,186.769974 C339.147491,185.344711 340.869141,184.283386 342.755310,182.982971 z"/>
  <path fill="#ECC97E" opacity="1.000000" stroke="none" d=" M127.235924,360.781921 C126.949974,327.753723 126.865463,294.618347 127.030930,261.484222 C127.245911,218.433365 127.658928,175.383530 127.994759,132.333313 C127.999687,131.701309 128.108887,131.070129 128.211426,130.000473 C129.324509,130.000473 130.272781,130.000443 131.221054,130.000473 C161.359558,130.001480 191.498383,130.068558 221.636200,129.925018 C225.686691,129.905731 226.934235,130.942474 227.138580,135.207245 C227.893341,150.959229 229.207199,166.684402 230.350967,182.991104 C249.858139,182.991104 269.441895,182.991104 289.488525,182.954865 C284.528870,189.193970 279.256165,195.606567 273.656860,201.720047 C253.445892,223.787079 233.097870,245.728531 212.853683,267.765228 C194.861130,287.350922 176.954803,307.015778 158.977219,326.615234 C148.534851,337.999664 138.026947,349.323975 127.235924,360.781921 z"/>
</svg>